<svg width="280" height="90" viewBox="0 0 280 90" fill="none" xmlns="http://www.w3.org/2000/svg">
<path d="M20.9211 45.4834C16.6011 45.4834 12.8777 44.5577 9.75086 42.7063C6.624 40.8137 4.21714 38.2011 2.53029 34.8686C0.843429 31.4949 0 27.6274 0 23.2663C0 18.8229 0.843429 14.9349 2.53029 11.6023C4.21714 8.22857 6.624 5.59543 9.75086 3.70286C12.8777 1.76914 16.6011 0.802286 20.9211 0.802286C26.2697 0.802286 30.6309 2.13943 34.0046 4.81371C37.4194 7.488 39.5383 11.2526 40.3611 16.1074H30.24C29.7463 13.9269 28.6971 12.24 27.0926 11.0469C25.488 9.81257 23.4103 9.19543 20.8594 9.19543C18.432 9.19543 16.3543 9.77143 14.6263 10.9234C12.9394 12.0754 11.6434 13.7006 10.7383 15.7989C9.87429 17.856 9.44229 20.3451 9.44229 23.2663C9.44229 26.1051 9.87429 28.5737 10.7383 30.672C11.6434 32.7291 12.9394 34.3337 14.6263 35.4857C16.3543 36.5966 18.432 37.152 20.8594 37.152C23.4103 37.152 25.4674 36.6171 27.0309 35.5474C28.6354 34.4366 29.7051 32.8526 30.24 30.7954H40.3611C39.5383 35.3623 37.4194 38.9623 34.0046 41.5954C30.6309 44.1874 26.2697 45.4834 20.9211 45.4834Z" fill="#CCD9EB"/>
<path d="M58.8841 45.4834C56.2921 45.4834 54.091 44.9486 52.2807 43.8789C50.5115 42.8091 49.1538 41.2457 48.2075 39.1886C47.3024 37.0903 46.8498 34.5394 46.8498 31.536V13.6389H56.107V30.6103C56.107 32.9143 56.5801 34.6834 57.5264 35.9177C58.4727 37.1109 59.995 37.7074 62.0933 37.7074C63.3687 37.7074 64.5001 37.4194 65.4875 36.8434C66.5161 36.2674 67.2978 35.424 67.8327 34.3131C68.4087 33.2023 68.6967 31.8446 68.6967 30.24V13.6389H77.9538V44.7429H69.8692L69.1287 39.8057C68.2235 41.4926 66.907 42.8709 65.179 43.9406C63.451 44.9691 61.3527 45.4834 58.8841 45.4834Z" fill="#CCD9EB"/>
<path d="M86.0943 44.7429V13.6389H95.3515V44.7429H86.0943ZM90.7229 10.0594C89.0772 10.0594 87.74 9.58628 86.7115 8.64C85.6829 7.69371 85.1686 6.50057 85.1686 5.06057C85.1686 3.57943 85.6829 2.36571 86.7115 1.41943C87.74 0.473143 89.0772 0 90.7229 0C92.4097 0 93.7675 0.473143 94.796 1.41943C95.8657 2.36571 96.4006 3.57943 96.4006 5.06057C96.4006 6.50057 95.8657 7.69371 94.796 8.64C93.7675 9.58628 92.4097 10.0594 90.7229 10.0594Z" fill="#CCD9EB"/>
<path d="M117.333 45.4834C114.576 45.4834 112.067 44.784 109.804 43.3851C107.582 41.9863 105.813 40.0731 104.496 37.6457C103.221 35.1771 102.583 32.3794 102.583 29.2526C102.583 26.0846 103.241 23.2869 104.558 20.8594C105.875 18.3909 107.664 16.4571 109.927 15.0583C112.231 13.6183 114.782 12.8983 117.58 12.8983C119.719 12.8983 121.591 13.2891 123.196 14.0709C124.8 14.8114 126.117 15.9017 127.145 17.3417V0.308571H136.403V44.7429H128.195L127.145 40.7314C126.528 41.5954 125.767 42.3977 124.862 43.1383C123.998 43.8377 122.949 44.3931 121.715 44.8046C120.48 45.2571 119.02 45.4834 117.333 45.4834ZM119.74 37.3989C121.262 37.3989 122.599 37.0491 123.751 36.3497C124.944 35.6503 125.849 34.6834 126.467 33.4491C127.125 32.2149 127.454 30.7954 127.454 29.1909C127.454 27.5863 127.125 26.1669 126.467 24.9326C125.849 23.6983 124.944 22.7314 123.751 22.032C122.599 21.3326 121.262 20.9829 119.74 20.9829C118.259 20.9829 116.921 21.3326 115.728 22.032C114.576 22.7314 113.671 23.6983 113.013 24.9326C112.355 26.1669 112.025 27.5657 112.025 29.1291C112.025 30.7337 112.355 32.1737 113.013 33.4491C113.671 34.6834 114.576 35.6503 115.728 36.3497C116.921 37.0491 118.259 37.3989 119.74 37.3989Z" fill="#CCD9EB"/>
<path d="M155.046 45.4834C152.454 45.4834 150.294 45.072 148.566 44.2491C146.879 43.4263 145.624 42.3154 144.801 40.9166C144.019 39.4766 143.628 37.8926 143.628 36.1646C143.628 34.3131 144.081 32.688 144.986 31.2891C145.932 29.8491 147.393 28.7177 149.368 27.8949C151.343 27.0309 153.832 26.5989 156.835 26.5989H164.364C164.364 25.2 164.179 24.048 163.809 23.1429C163.48 22.2377 162.924 21.5589 162.143 21.1063C161.361 20.6537 160.291 20.4274 158.934 20.4274C157.494 20.4274 156.28 20.7154 155.292 21.2914C154.305 21.8674 153.688 22.7726 153.441 24.0069H144.554C144.76 21.7851 145.48 19.8514 146.714 18.2057C147.99 16.56 149.676 15.264 151.775 14.3177C153.873 13.3714 156.28 12.8983 158.995 12.8983C161.958 12.8983 164.529 13.392 166.71 14.3794C168.89 15.3257 170.577 16.7246 171.77 18.576C173.004 20.4274 173.622 22.7314 173.622 25.488V44.7429H165.907L164.796 40.2377C164.344 41.0194 163.809 41.7394 163.192 42.3977C162.575 43.0149 161.855 43.5703 161.032 44.064C160.209 44.5166 159.304 44.8663 158.316 45.1131C157.329 45.36 156.239 45.4834 155.046 45.4834ZM157.329 38.448C158.316 38.448 159.18 38.2834 159.921 37.9543C160.662 37.6251 161.299 37.1726 161.834 36.5966C162.369 36.0206 162.801 35.3623 163.13 34.6217C163.5 33.84 163.768 32.9966 163.932 32.0914V32.0297H157.946C156.918 32.0297 156.054 32.1737 155.354 32.4617C154.696 32.7086 154.202 33.0789 153.873 33.5726C153.544 34.0663 153.379 34.6423 153.379 35.3006C153.379 36 153.544 36.5966 153.873 37.0903C154.243 37.5429 154.716 37.8926 155.292 38.1394C155.91 38.3451 156.588 38.448 157.329 38.448Z" fill="#CCD9EB"/>
<path d="M195.139 45.4834C192.382 45.4834 189.872 44.784 187.609 43.3851C185.388 41.9863 183.619 40.0731 182.302 37.6457C181.027 35.1771 180.389 32.3794 180.389 29.2526C180.389 26.0846 181.047 23.2869 182.364 20.8594C183.68 18.3909 185.47 16.4571 187.733 15.0583C190.037 13.6183 192.588 12.8983 195.386 12.8983C197.525 12.8983 199.397 13.2891 201.001 14.0709C202.606 14.8114 203.923 15.9017 204.951 17.3417V0.308571H214.208V44.7429H206L204.951 40.7314C204.334 41.5954 203.573 42.3977 202.668 43.1383C201.804 43.8377 200.755 44.3931 199.52 44.8046C198.286 45.2571 196.826 45.4834 195.139 45.4834ZM197.546 37.3989C199.068 37.3989 200.405 37.0491 201.557 36.3497C202.75 35.6503 203.655 34.6834 204.272 33.4491C204.931 32.2149 205.26 30.7954 205.26 29.1909C205.26 27.5863 204.931 26.1669 204.272 24.9326C203.655 23.6983 202.75 22.7314 201.557 22.032C200.405 21.3326 199.068 20.9829 197.546 20.9829C196.064 20.9829 194.727 21.3326 193.534 22.032C192.382 22.7314 191.477 23.6983 190.819 24.9326C190.16 26.1669 189.831 27.5657 189.831 29.1291C189.831 30.7337 190.16 32.1737 190.819 33.4491C191.477 34.6834 192.382 35.6503 193.534 36.3497C194.727 37.0491 196.064 37.3989 197.546 37.3989Z" fill="#CCD9EB"/>
<g clip-path="url(#clip0_286_893)">
<path d="M214.946 74.7678H204.982C204.321 74.7678 203.688 74.5054 203.221 74.0382C202.754 73.571 202.491 72.9374 202.491 72.2768V59.8214C202.491 59.1607 202.754 58.5271 203.221 58.0599C203.688 57.5928 204.321 57.3303 204.982 57.3303H214.946" fill="#768CA9"/>
<path d="M214.946 74.7678H204.982C204.321 74.7678 203.688 74.5054 203.221 74.0382C202.754 73.571 202.491 72.9374 202.491 72.2768V59.8214C202.491 59.1607 202.754 58.5271 203.221 58.0599C203.688 57.5928 204.321 57.3303 204.982 57.3303H214.946" stroke="#CCD9EB" stroke-width="2.57143" stroke-linecap="round" stroke-linejoin="round"/>
<path d="M234.875 59.8213H244.839L265.702 55.0229C266.469 54.8127 267.274 54.7822 268.055 54.9338C268.836 55.0855 269.571 55.4151 270.204 55.897C270.836 56.379 271.349 57.0004 271.702 57.7129C272.056 58.4254 272.24 59.2098 272.241 60.0051C272.242 60.9653 271.974 61.9067 271.469 62.7235C270.964 63.5403 270.242 64.2002 269.383 64.6291L257.295 69.7856L237.366 74.7678H214.946V57.3303L222.731 49.5457C223.427 48.8523 224.253 48.3029 225.161 47.9289C226.069 47.5549 227.042 47.3636 228.025 47.366H243.594C245.245 47.366 246.83 48.0221 247.997 49.19C249.165 50.358 249.821 51.942 249.821 53.5937C249.821 55.2454 249.165 56.8294 247.997 57.9973C246.83 59.1652 245.245 59.8213 243.594 59.8213H234.875Z" fill="#768CA9" stroke="#CCD9EB" stroke-width="2.57143" stroke-linecap="round" stroke-linejoin="round"/>
<path d="M230.209 39.9116C227.18 36.0878 225 31.9899 225 27.4562C225 20.7023 230.502 15.0008 237.287 15.0008C239.712 14.9724 242.09 15.6684 244.118 16.9998C246.145 18.3312 247.728 20.2373 248.665 22.4741C249.602 20.2373 251.186 18.3312 253.213 16.9998C255.24 15.6684 257.618 14.9724 260.043 15.0008C266.828 15.0008 272.33 20.7023 272.33 27.4562C272.33 36.5579 263.556 44.6041 256.693 49.6641" fill="#768CA9"/>
<path d="M230.209 39.9116C227.18 36.0878 225 31.9899 225 27.4562C225 20.7023 230.502 15.0008 237.287 15.0008C239.712 14.9724 242.09 15.6684 244.118 16.9998C246.145 18.3312 247.728 20.2373 248.665 22.4741C249.602 20.2373 251.186 18.3312 253.213 16.9998C255.24 15.6684 257.618 14.9724 260.043 15.0008C266.828 15.0008 272.33 20.7023 272.33 27.4562C272.33 36.5579 263.556 44.6041 256.693 49.6641" stroke="#CCD9EB" stroke-width="2.57143" stroke-linecap="round" stroke-linejoin="round"/>
</g>
<defs>
<clipPath id="clip0_286_893">
<rect width="79.7143" height="79.7143" fill="white" transform="translate(200 10)"/>
</clipPath>
</defs>
</svg>
